<svg viewBox="0 0 60 60" xmlns="http://www.w3.org/2000/svg"><g data-name="Layer 1"><circle cx="15" cy="45" r="5" fill="#daa520" class="fill-000000"></circle><path d="M8.036 45.715 6.33 47.258A1 1 0 0 0 6 48a5.495 5.495 0 0 1-5 5 1 1 0 0 0-.707 1.707l5 5A1 1 0 0 0 7 59a5.495 5.495 0 0 1 5-5 1.002 1.002 0 0 0 .742-.33l1.543-1.706a7.013 7.013 0 0 1-6.249-6.249Z" fill="#daa520" class="fill-000000"></path><circle cx="25" cy="35" r="4" fill="#daa520" class="fill-000000"></circle><path d="m19.053 35.757-2.64 2.387a7.022 7.022 0 0 1 5.443 5.443l2.386-2.64a6.005 6.005 0 0 1-5.189-5.19ZM29.071 26.703l-2.717 2.457a6.012 6.012 0 0 1 4.486 4.487l2.457-2.718a4.98 4.98 0 0 1-4.226-4.226Z" fill="#daa520" class="fill-000000"></path><circle cx="34" cy="26" r="3" fill="#daa520" class="fill-000000"></circle><path d="M59.705.29a1.001 1.001 0 0 0-1.38-.027L35.442 21.237a4.99 4.99 0 0 1 3.39 3.55L59.743 1.67a1 1 0 0 0-.037-1.38Z" fill="#daa520" class="fill-000000"></path></g></svg>